<svg xmlns="http://www.w3.org/2000/svg" width="303.03" height="35" viewBox="0 0 303.03 35"><rect class="svg__rect" x="0" y="0" width="115.31" height="35" fill="#5FCAD6" data-darkreader-inline-fill="" style="--darkreader-inline-fill: #101e14;"/><rect class="svg__rect" x="113.31" y="0" width="189.72" height="35" fill="#1E75AC" data-darkreader-inline-fill="" style="--darkreader-inline-fill: #278c43;"/><path class="svg__text" d="M15.69 22L14.22 22L14.22 13.47L16.14 13.47L18.60 20.01L21.06 13.47L22.97 13.47L22.97 22L21.49 22L21.49 19.19L21.64 15.43L19.12 22L18.06 22L15.55 15.43L15.69 19.19L15.69 22ZM28.49 22L26.95 22L30.17 13.47L31.50 13.47L34.73 22L33.18 22L32.49 20.01L29.18 20.01L28.49 22ZM30.83 15.28L29.60 18.82L32.07 18.82L30.83 15.28ZM41.14 22L38.69 22L38.69 13.47L41.21 13.47Q42.34 13.47 43.21 13.97Q44.09 14.48 44.57 15.40Q45.05 16.33 45.05 17.52L45.05 17.52L45.05 17.95Q45.05 19.16 44.57 20.08Q44.08 21.00 43.19 21.50Q42.30 22 41.14 22L41.14 22ZM40.17 14.66L40.17 20.82L41.14 20.82Q42.30 20.82 42.93 20.09Q43.55 19.36 43.56 17.99L43.56 17.99L43.56 17.52Q43.56 16.13 42.96 15.40Q42.35 14.66 41.21 14.66L41.21 14.66L40.17 14.66ZM55.09 22L49.51 22L49.51 13.47L55.05 13.47L55.05 14.66L51.00 14.66L51.00 17.02L54.50 17.02L54.50 18.19L51.00 18.19L51.00 20.82L55.09 20.82L55.09 22ZM66.65 22L64.68 13.47L66.15 13.47L67.47 19.88L69.10 13.47L70.34 13.47L71.96 19.89L73.27 13.47L74.74 13.47L72.77 22L71.35 22L69.73 15.77L68.07 22L66.65 22ZM80.38 22L78.90 22L78.90 13.47L80.38 13.47L80.38 22ZM86.87 14.66L84.23 14.66L84.23 13.47L91.00 13.47L91.00 14.66L88.34 14.66L88.34 22L86.87 22L86.87 14.66ZM96.24 22L94.75 22L94.75 13.47L96.24 13.47L96.24 17.02L100.05 17.02L100.05 13.47L101.53 13.47L101.53 22L100.05 22L100.05 18.21L96.24 18.21L96.24 22Z" fill="#FFFFFF" data-darkreader-inline-fill="" style="--darkreader-inline-fill: #181a1b;"/><path class="svg__text" d="M126.91 21.24L126.91 21.24L127.69 19.49Q128.25 19.86 129.00 20.09Q129.74 20.32 130.46 20.32L130.46 20.32Q131.83 20.32 131.83 19.64L131.83 19.64Q131.83 19.28 131.44 19.11Q131.05 18.93 130.19 18.74L130.19 18.74Q129.24 18.53 128.60 18.30Q127.97 18.06 127.51 17.55Q127.06 17.03 127.06 16.16L127.06 16.16Q127.06 15.39 127.48 14.77Q127.90 14.15 128.73 13.79Q129.57 13.43 130.77 13.43L130.77 13.43Q131.60 13.43 132.41 13.62Q133.21 13.80 133.83 14.17L133.83 14.17L133.09 15.93Q131.89 15.28 130.76 15.28L130.76 15.28Q130.05 15.28 129.73 15.49Q129.41 15.70 129.41 16.04L129.41 16.04Q129.41 16.37 129.79 16.54Q130.18 16.71 131.03 16.89L131.03 16.89Q131.99 17.10 132.62 17.33Q133.25 17.56 133.71 18.07Q134.17 18.58 134.17 19.46L134.17 19.46Q134.17 20.21 133.75 20.83Q133.33 21.44 132.49 21.80Q131.65 22.17 130.45 22.17L130.45 22.17Q129.43 22.17 128.47 21.92Q127.51 21.67 126.91 21.24ZM141.13 22L138.75 22L138.75 13.60L142.59 13.60Q143.73 13.60 144.57 13.98Q145.41 14.35 145.87 15.06Q146.32 15.76 146.32 16.71L146.32 16.71Q146.32 17.66 145.87 18.35Q145.41 19.05 144.57 19.42Q143.73 19.80 142.59 19.80L142.59 19.80L141.13 19.80L141.13 22ZM141.13 15.47L141.13 17.93L142.45 17.93Q143.18 17.93 143.55 17.61Q143.92 17.29 143.92 16.71L143.92 16.71Q143.92 16.12 143.55 15.80Q143.18 15.47 142.45 15.47L142.45 15.47L141.13 15.47ZM153.45 22L151.08 22L151.08 13.60L154.92 13.60Q156.06 13.60 156.90 13.98Q157.74 14.35 158.20 15.06Q158.65 15.76 158.65 16.71L158.65 16.71Q158.65 17.62 158.22 18.30Q157.80 18.98 157.01 19.36L157.01 19.36L158.82 22L156.27 22L154.75 19.77L153.45 19.77L153.45 22ZM153.45 15.47L153.45 17.93L154.77 17.93Q155.51 17.93 155.88 17.61Q156.25 17.29 156.25 16.71L156.25 16.71Q156.25 16.12 155.88 15.79Q155.51 15.47 154.77 15.47L154.77 15.47L153.45 15.47ZM165.82 22L163.44 22L163.44 13.60L165.82 13.60L165.82 22ZM173.32 22L170.99 22L170.99 13.60L172.95 13.60L176.66 18.07L176.66 13.60L178.98 13.60L178.98 22L177.03 22L173.32 17.52L173.32 22ZM183.72 17.80L183.72 17.80Q183.72 16.54 184.32 15.54Q184.91 14.55 185.98 13.99Q187.05 13.43 188.39 13.43L188.39 13.43Q189.57 13.43 190.51 13.83Q191.45 14.22 192.07 14.97L192.07 14.97L190.56 16.33Q189.71 15.40 188.53 15.40L188.53 15.40Q188.52 15.40 188.52 15.40L188.52 15.40Q187.44 15.40 186.78 16.06Q186.12 16.71 186.12 17.80L186.12 17.80Q186.12 18.50 186.42 19.04Q186.72 19.59 187.26 19.89Q187.80 20.20 188.49 20.20L188.49 20.20Q189.18 20.20 189.78 19.93L189.78 19.93L189.78 17.62L191.87 17.62L191.87 21.10Q191.15 21.61 190.22 21.89Q189.28 22.17 188.35 22.17L188.35 22.17Q187.03 22.17 185.97 21.61Q184.91 21.05 184.32 20.05Q183.72 19.06 183.72 17.80ZM203.25 21.24L203.25 21.24L204.03 19.49Q204.60 19.86 205.34 20.09Q206.08 20.32 206.80 20.32L206.80 20.32Q208.17 20.32 208.18 19.64L208.18 19.64Q208.18 19.28 207.79 19.11Q207.40 18.93 206.53 18.74L206.53 18.74Q205.58 18.53 204.94 18.30Q204.31 18.06 203.85 17.55Q203.40 17.03 203.40 16.16L203.40 16.16Q203.40 15.39 203.82 14.77Q204.24 14.15 205.07 13.79Q205.91 13.43 207.12 13.43L207.12 13.43Q207.94 13.43 208.75 13.62Q209.55 13.80 210.17 14.17L210.17 14.17L209.44 15.93Q208.23 15.28 207.10 15.28L207.10 15.28Q206.39 15.28 206.07 15.49Q205.75 15.70 205.75 16.04L205.75 16.04Q205.75 16.37 206.13 16.54Q206.52 16.71 207.37 16.89L207.37 16.89Q208.33 17.10 208.96 17.33Q209.59 17.56 210.05 18.07Q210.51 18.58 210.51 19.46L210.51 19.46Q210.51 20.21 210.09 20.83Q209.68 21.44 208.83 21.80Q207.99 22.17 206.79 22.17L206.79 22.17Q205.77 22.17 204.81 21.92Q203.85 21.67 203.25 21.24ZM221.83 22L215.09 22L215.09 13.60L221.68 13.60L221.68 15.44L217.45 15.44L217.45 16.85L221.18 16.85L221.18 18.63L217.45 18.63L217.45 20.17L221.83 20.17L221.83 22ZM226.21 17.80L226.21 17.80Q226.21 16.54 226.81 15.54Q227.41 14.55 228.46 13.99Q229.51 13.43 230.83 13.43L230.83 13.43Q231.98 13.43 232.91 13.84Q233.83 14.25 234.44 15.02L234.44 15.02L232.93 16.39Q232.12 15.40 230.95 15.40L230.95 15.40Q230.27 15.40 229.73 15.70Q229.20 16 228.90 16.54Q228.61 17.09 228.61 17.80L228.61 17.80Q228.61 18.51 228.90 19.05Q229.20 19.60 229.73 19.90Q230.27 20.20 230.95 20.20L230.95 20.20Q232.12 20.20 232.93 19.22L232.93 19.22L234.44 20.58Q233.83 21.35 232.91 21.76Q231.98 22.17 230.83 22.17L230.83 22.17Q229.51 22.17 228.46 21.61Q227.41 21.05 226.81 20.05Q226.21 19.06 226.21 17.80ZM238.91 18.26L238.91 18.26L238.91 13.60L241.29 13.60L241.29 18.19Q241.29 20.20 242.88 20.20L242.88 20.20Q244.46 20.20 244.46 18.19L244.46 18.19L244.46 13.60L246.81 13.60L246.81 18.26Q246.81 20.13 245.77 21.15Q244.73 22.17 242.86 22.17L242.86 22.17Q240.98 22.17 239.95 21.15Q238.91 20.13 238.91 18.26ZM254.27 22L251.89 22L251.89 13.60L255.74 13.60Q256.88 13.60 257.72 13.98Q258.55 14.35 259.01 15.06Q259.47 15.76 259.47 16.71L259.47 16.71Q259.47 17.62 259.04 18.30Q258.61 18.98 257.82 19.36L257.82 19.36L259.63 22L257.09 22L255.57 19.77L254.27 19.77L254.27 22ZM254.27 15.47L254.27 17.93L255.59 17.93Q256.32 17.93 256.69 17.61Q257.07 17.29 257.07 16.71L257.07 16.71Q257.07 16.12 256.69 15.79Q256.32 15.47 255.59 15.47L255.59 15.47L254.27 15.47ZM266.63 22L264.26 22L264.26 13.60L266.63 13.60L266.63 22ZM273.60 15.48L271.02 15.48L271.02 13.60L278.54 13.60L278.54 15.48L275.97 15.48L275.97 22L273.60 22L273.60 15.48ZM285.04 18.95L281.83 13.60L284.34 13.60L286.33 16.94L288.33 13.60L290.63 13.60L287.41 18.99L287.41 22L285.04 22L285.04 18.95Z" fill="#FFFFFF" x="126.31" data-darkreader-inline-fill="" style="--darkreader-inline-fill: #181a1b;"/></svg>