<svg xmlns="http://www.w3.org/2000/svg" width="262.95000000000005" height="35" viewBox="0 0 262.95000000000005 35"><rect class="svg__rect" x="0" y="0" width="115.31" height="35" fill="#7CD253" data-darkreader-inline-fill="" style="--darkreader-inline-fill: #101e14;"/><rect class="svg__rect" x="113.31" y="0" width="149.64000000000001" height="35" fill="#2C8043" data-darkreader-inline-fill="" style="--darkreader-inline-fill: #278c43;"/><path class="svg__text" d="M15.69 22L14.22 22L14.22 13.47L16.14 13.47L18.60 20.01L21.06 13.47L22.97 13.47L22.97 22L21.49 22L21.49 19.19L21.64 15.43L19.12 22L18.06 22L15.55 15.43L15.69 19.19L15.69 22ZM28.49 22L26.95 22L30.17 13.47L31.50 13.47L34.73 22L33.18 22L32.49 20.01L29.18 20.01L28.49 22ZM30.83 15.28L29.60 18.82L32.07 18.82L30.83 15.28ZM41.14 22L38.69 22L38.69 13.47L41.21 13.47Q42.34 13.47 43.21 13.97Q44.09 14.48 44.57 15.40Q45.05 16.33 45.05 17.52L45.05 17.52L45.05 17.95Q45.05 19.16 44.57 20.08Q44.08 21.00 43.19 21.50Q42.30 22 41.14 22L41.14 22ZM40.17 14.66L40.17 20.82L41.14 20.82Q42.30 20.82 42.93 20.09Q43.55 19.36 43.56 17.99L43.56 17.99L43.56 17.52Q43.56 16.13 42.96 15.40Q42.35 14.66 41.21 14.66L41.21 14.66L40.17 14.66ZM55.09 22L49.51 22L49.51 13.47L55.05 13.47L55.05 14.66L51.00 14.66L51.00 17.02L54.50 17.02L54.50 18.19L51.00 18.19L51.00 20.82L55.09 20.82L55.09 22ZM66.65 22L64.68 13.47L66.15 13.47L67.47 19.88L69.10 13.47L70.34 13.47L71.96 19.89L73.27 13.47L74.74 13.47L72.77 22L71.35 22L69.73 15.77L68.07 22L66.65 22ZM80.38 22L78.90 22L78.90 13.47L80.38 13.47L80.38 22ZM86.87 14.66L84.23 14.66L84.23 13.47L91.00 13.47L91.00 14.66L88.34 14.66L88.34 22L86.87 22L86.87 14.66ZM96.24 22L94.75 22L94.75 13.47L96.24 13.47L96.24 17.02L100.05 17.02L100.05 13.47L101.53 13.47L101.53 22L100.05 22L100.05 18.21L96.24 18.21L96.24 22Z" fill="#FFFFFF" data-darkreader-inline-fill="" style="--darkreader-inline-fill: #181a1b;"/><path class="svg__text" d="M126.91 21.24L126.91 21.24L127.69 19.49Q128.25 19.86 129.00 20.09Q129.74 20.32 130.46 20.32L130.46 20.32Q131.83 20.32 131.83 19.64L131.83 19.64Q131.83 19.28 131.44 19.11Q131.05 18.93 130.19 18.74L130.19 18.74Q129.24 18.53 128.60 18.30Q127.97 18.06 127.51 17.55Q127.06 17.03 127.06 16.16L127.06 16.16Q127.06 15.39 127.48 14.77Q127.90 14.15 128.73 13.79Q129.57 13.43 130.77 13.43L130.77 13.43Q131.60 13.43 132.41 13.62Q133.21 13.80 133.83 14.17L133.83 14.17L133.09 15.93Q131.89 15.28 130.76 15.28L130.76 15.28Q130.05 15.28 129.73 15.49Q129.41 15.70 129.41 16.04L129.41 16.04Q129.41 16.37 129.79 16.54Q130.18 16.71 131.03 16.89L131.03 16.89Q131.99 17.10 132.62 17.33Q133.25 17.56 133.71 18.07Q134.17 18.58 134.17 19.46L134.17 19.46Q134.17 20.21 133.75 20.83Q133.33 21.44 132.49 21.80Q131.65 22.17 130.45 22.17L130.45 22.17Q129.43 22.17 128.47 21.92Q127.51 21.67 126.91 21.24ZM141.13 22L138.75 22L138.75 13.60L142.59 13.60Q143.73 13.60 144.57 13.98Q145.41 14.35 145.87 15.06Q146.32 15.76 146.32 16.71L146.32 16.71Q146.32 17.66 145.87 18.35Q145.41 19.05 144.57 19.42Q143.73 19.80 142.59 19.80L142.59 19.80L141.13 19.80L141.13 22ZM141.13 15.47L141.13 17.93L142.45 17.93Q143.18 17.93 143.55 17.61Q143.92 17.29 143.92 16.71L143.92 16.71Q143.92 16.12 143.55 15.80Q143.18 15.47 142.45 15.47L142.45 15.47L141.13 15.47ZM153.45 22L151.08 22L151.08 13.60L154.92 13.60Q156.06 13.60 156.90 13.98Q157.74 14.35 158.20 15.06Q158.65 15.76 158.65 16.71L158.65 16.71Q158.65 17.62 158.22 18.30Q157.80 18.98 157.01 19.36L157.01 19.36L158.82 22L156.27 22L154.75 19.77L153.45 19.77L153.45 22ZM153.45 15.47L153.45 17.93L154.77 17.93Q155.51 17.93 155.88 17.61Q156.25 17.29 156.25 16.71L156.25 16.71Q156.25 16.12 155.88 15.79Q155.51 15.47 154.77 15.47L154.77 15.47L153.45 15.47ZM165.82 22L163.44 22L163.44 13.60L165.82 13.60L165.82 22ZM173.32 22L170.99 22L170.99 13.60L172.95 13.60L176.66 18.07L176.66 13.60L178.98 13.60L178.98 22L177.03 22L173.32 17.52L173.32 22ZM183.72 17.80L183.72 17.80Q183.72 16.54 184.32 15.54Q184.91 14.55 185.98 13.99Q187.05 13.43 188.39 13.43L188.39 13.43Q189.57 13.43 190.51 13.83Q191.45 14.22 192.07 14.97L192.07 14.97L190.56 16.33Q189.71 15.40 188.53 15.40L188.53 15.40Q188.52 15.40 188.52 15.40L188.52 15.40Q187.44 15.40 186.78 16.06Q186.12 16.71 186.12 17.80L186.12 17.80Q186.12 18.50 186.42 19.04Q186.72 19.59 187.26 19.89Q187.80 20.20 188.49 20.20L188.49 20.20Q189.18 20.20 189.78 19.93L189.78 19.93L189.78 17.62L191.87 17.62L191.87 21.10Q191.15 21.61 190.22 21.89Q189.28 22.17 188.35 22.17L188.35 22.17Q187.03 22.17 185.97 21.61Q184.91 21.05 184.32 20.05Q183.72 19.06 183.72 17.80ZM208.38 22L203.84 22L203.84 13.60L208.14 13.60Q209.75 13.60 210.59 14.19Q211.43 14.79 211.43 15.79L211.43 15.79Q211.43 16.39 211.13 16.87Q210.84 17.34 210.30 17.62L210.30 17.62Q211.02 17.87 211.42 18.41Q211.83 18.94 211.83 19.70L211.83 19.70Q211.83 20.80 210.94 21.40Q210.06 22 208.38 22L208.38 22ZM206.20 18.58L206.20 20.28L208.19 20.28Q209.44 20.28 209.44 19.43L209.44 19.43Q209.44 18.58 208.19 18.58L208.19 18.58L206.20 18.58ZM206.20 15.31L206.20 16.94L207.82 16.94Q209.03 16.94 209.03 16.12L209.03 16.12Q209.03 15.31 207.82 15.31L207.82 15.31L206.20 15.31ZM216.12 17.80L216.12 17.80Q216.12 16.55 216.72 15.55Q217.33 14.56 218.39 14.00Q219.45 13.43 220.78 13.43L220.78 13.43Q222.12 13.43 223.18 14.00Q224.24 14.56 224.85 15.55Q225.45 16.55 225.45 17.80L225.45 17.80Q225.45 19.05 224.85 20.04Q224.24 21.04 223.18 21.60Q222.12 22.17 220.78 22.17L220.78 22.17Q219.45 22.17 218.39 21.60Q217.33 21.04 216.72 20.04Q216.12 19.05 216.12 17.80ZM218.52 17.80L218.52 17.80Q218.52 18.51 218.82 19.05Q219.12 19.60 219.64 19.90Q220.15 20.20 220.78 20.20L220.78 20.20Q221.42 20.20 221.94 19.90Q222.45 19.60 222.75 19.05Q223.05 18.51 223.05 17.80L223.05 17.80Q223.05 17.09 222.75 16.54Q222.45 16 221.94 15.70Q221.42 15.40 220.78 15.40L220.78 15.40Q220.15 15.40 219.63 15.70Q219.12 16 218.82 16.54Q218.52 17.09 218.52 17.80ZM229.76 17.80L229.76 17.80Q229.76 16.55 230.36 15.55Q230.96 14.56 232.03 14.00Q233.09 13.43 234.42 13.43L234.42 13.43Q235.75 13.43 236.81 14.00Q237.88 14.56 238.48 15.55Q239.09 16.55 239.09 17.80L239.09 17.80Q239.09 19.05 238.48 20.04Q237.88 21.04 236.82 21.60Q235.76 22.17 234.42 22.17L234.42 22.17Q233.09 22.17 232.03 21.60Q230.96 21.04 230.36 20.04Q229.76 19.05 229.76 17.80ZM232.15 17.80L232.15 17.80Q232.15 18.51 232.45 19.05Q232.76 19.60 233.27 19.90Q233.79 20.20 234.42 20.20L234.42 20.20Q235.06 20.20 235.57 19.90Q236.09 19.60 236.39 19.05Q236.69 18.51 236.69 17.80L236.69 17.80Q236.69 17.09 236.39 16.54Q236.09 16 235.57 15.70Q235.06 15.40 234.42 15.40L234.42 15.40Q233.78 15.40 233.27 15.70Q232.76 16 232.45 16.54Q232.15 17.09 232.15 17.80ZM245.61 15.48L243.03 15.48L243.03 13.60L250.55 13.60L250.55 15.48L247.98 15.48L247.98 22L245.61 22L245.61 15.48Z" fill="#FFFFFF" x="126.31" data-darkreader-inline-fill="" style="--darkreader-inline-fill: #181a1b;"/></svg>