<svg xmlns="http://www.w3.org/2000/svg" width="228.77" height="35" viewBox="0 0 228.77 35"><rect class="svg__rect" x="0" y="0" width="115.31" height="35" fill="#6ADC33" data-darkreader-inline-fill="" style="--darkreader-inline-fill: #101e14;"/><rect class="svg__rect" x="113.31" y="0" width="115.46000000000001" height="35" fill="#409304" data-darkreader-inline-fill="" style="--darkreader-inline-fill: #278c43;"/><path class="svg__text" d="M15.69 22L14.22 22L14.22 13.47L16.14 13.47L18.60 20.01L21.06 13.47L22.97 13.47L22.97 22L21.49 22L21.49 19.19L21.64 15.43L19.12 22L18.06 22L15.55 15.43L15.69 19.19L15.69 22ZM28.49 22L26.95 22L30.17 13.47L31.50 13.47L34.73 22L33.18 22L32.49 20.01L29.18 20.01L28.49 22ZM30.83 15.28L29.60 18.82L32.07 18.82L30.83 15.28ZM41.14 22L38.69 22L38.69 13.47L41.21 13.47Q42.34 13.47 43.21 13.97Q44.09 14.48 44.57 15.40Q45.05 16.33 45.05 17.52L45.05 17.52L45.05 17.95Q45.05 19.16 44.57 20.08Q44.08 21.00 43.19 21.50Q42.30 22 41.14 22L41.14 22ZM40.17 14.66L40.17 20.82L41.14 20.82Q42.30 20.82 42.93 20.09Q43.55 19.36 43.56 17.99L43.56 17.99L43.56 17.52Q43.56 16.13 42.96 15.40Q42.35 14.66 41.21 14.66L41.21 14.66L40.17 14.66ZM55.09 22L49.51 22L49.51 13.47L55.05 13.47L55.05 14.66L51.00 14.66L51.00 17.02L54.50 17.02L54.50 18.19L51.00 18.19L51.00 20.82L55.09 20.82L55.09 22ZM66.65 22L64.68 13.47L66.15 13.47L67.47 19.88L69.10 13.47L70.34 13.47L71.96 19.89L73.27 13.47L74.74 13.47L72.77 22L71.35 22L69.73 15.77L68.07 22L66.65 22ZM80.38 22L78.90 22L78.90 13.47L80.38 13.47L80.38 22ZM86.87 14.66L84.23 14.66L84.23 13.47L91.00 13.47L91.00 14.66L88.34 14.66L88.34 22L86.87 22L86.87 14.66ZM96.24 22L94.75 22L94.75 13.47L96.24 13.47L96.24 17.02L100.05 17.02L100.05 13.47L101.53 13.47L101.53 22L100.05 22L100.05 18.21L96.24 18.21L96.24 22Z" fill="#FFFFFF" data-darkreader-inline-fill="" style="--darkreader-inline-fill: #181a1b;"/><path class="svg__text" d="M129.70 22L127.50 22L127.50 13.60L129.45 13.60L132.41 18.45L135.29 13.60L137.24 13.60L137.27 22L135.09 22L135.06 17.55L132.90 21.17L131.85 21.17L129.70 17.67L129.70 22ZM142.00 17.80L142.00 17.80Q142.00 16.55 142.60 15.55Q143.21 14.56 144.27 14.00Q145.33 13.43 146.66 13.43L146.66 13.43Q147.99 13.43 149.06 14.00Q150.12 14.56 150.73 15.55Q151.33 16.55 151.33 17.80L151.33 17.80Q151.33 19.05 150.73 20.04Q150.12 21.04 149.06 21.60Q148.00 22.17 146.66 22.17L146.66 22.17Q145.33 22.17 144.27 21.60Q143.21 21.04 142.60 20.04Q142.00 19.05 142.00 17.80ZM144.40 17.80L144.40 17.80Q144.40 18.51 144.70 19.05Q145.00 19.60 145.52 19.90Q146.03 20.20 146.66 20.20L146.66 20.20Q147.30 20.20 147.82 19.90Q148.33 19.60 148.63 19.05Q148.93 18.51 148.93 17.80L148.93 17.80Q148.93 17.09 148.63 16.54Q148.33 16 147.82 15.70Q147.30 15.40 146.66 15.40L146.66 15.40Q146.03 15.40 145.51 15.70Q145.00 16 144.70 16.54Q144.40 17.09 144.40 17.80ZM158.39 22L156.06 22L156.06 13.60L158.02 13.60L161.73 18.07L161.73 13.60L164.05 13.60L164.05 22L162.10 22L158.39 17.52L158.39 22ZM168.79 17.80L168.79 17.80Q168.79 16.54 169.39 15.54Q169.98 14.55 171.05 13.99Q172.12 13.43 173.46 13.43L173.46 13.43Q174.64 13.43 175.58 13.83Q176.52 14.22 177.14 14.97L177.14 14.97L175.63 16.33Q174.78 15.40 173.61 15.40L173.61 15.40Q173.59 15.40 173.59 15.40L173.59 15.40Q172.51 15.40 171.85 16.06Q171.19 16.71 171.19 17.80L171.19 17.80Q171.19 18.50 171.49 19.04Q171.79 19.59 172.33 19.89Q172.87 20.20 173.56 20.20L173.56 20.20Q174.25 20.20 174.85 19.93L174.85 19.93L174.85 17.62L176.95 17.62L176.95 21.10Q176.22 21.61 175.29 21.89Q174.36 22.17 173.42 22.17L173.42 22.17Q172.10 22.17 171.04 21.61Q169.98 21.05 169.39 20.05Q168.79 19.06 168.79 17.80ZM181.51 17.80L181.51 17.80Q181.51 16.55 182.11 15.55Q182.72 14.56 183.78 14.00Q184.84 13.43 186.17 13.43L186.17 13.43Q187.50 13.43 188.57 14.00Q189.63 14.56 190.24 15.55Q190.84 16.55 190.84 17.80L190.84 17.80Q190.84 19.05 190.24 20.04Q189.63 21.04 188.57 21.60Q187.51 22.17 186.17 22.17L186.17 22.17Q184.84 22.17 183.78 21.60Q182.72 21.04 182.11 20.04Q181.51 19.05 181.51 17.80ZM183.91 17.80L183.91 17.80Q183.91 18.51 184.21 19.05Q184.51 19.60 185.03 19.90Q185.54 20.20 186.17 20.20L186.17 20.20Q186.81 20.20 187.33 19.90Q187.84 19.60 188.14 19.05Q188.44 18.51 188.44 17.80L188.44 17.80Q188.44 17.09 188.14 16.54Q187.84 16 187.33 15.70Q186.81 15.40 186.17 15.40L186.17 15.40Q185.53 15.40 185.02 15.70Q184.51 16 184.21 16.54Q183.91 17.09 183.91 17.80ZM199.54 22L195.57 22L195.57 13.60L199.54 13.60Q200.93 13.60 201.99 14.12Q203.06 14.63 203.65 15.58Q204.24 16.53 204.24 17.80L204.24 17.80Q204.24 19.07 203.65 20.02Q203.06 20.97 201.99 21.48Q200.93 22 199.54 22L199.54 22ZM197.95 15.50L197.95 20.10L199.45 20.10Q200.53 20.10 201.18 19.49Q201.84 18.88 201.84 17.80L201.84 17.80Q201.84 16.72 201.18 16.11Q200.53 15.50 199.45 15.50L199.45 15.50L197.95 15.50ZM213.51 22L208.97 22L208.97 13.60L213.27 13.60Q214.87 13.60 215.71 14.19Q216.55 14.79 216.55 15.79L216.55 15.79Q216.55 16.39 216.26 16.87Q215.96 17.34 215.42 17.62L215.42 17.62Q216.14 17.87 216.55 18.41Q216.96 18.94 216.96 19.70L216.96 19.70Q216.96 20.80 216.07 21.40Q215.18 22 213.51 22L213.51 22ZM211.32 18.58L211.32 20.28L213.31 20.28Q214.56 20.28 214.56 19.43L214.56 19.43Q214.56 18.58 213.31 18.58L213.31 18.58L211.32 18.58ZM211.32 15.31L211.32 16.94L212.95 16.94Q214.15 16.94 214.15 16.12L214.15 16.12Q214.15 15.31 212.95 15.31L212.95 15.31L211.32 15.31Z" fill="#FFFFFF" x="126.31" data-darkreader-inline-fill="" style="--darkreader-inline-fill: #181a1b;"/></svg>